<?xml version="1.0" encoding="ISO8859-1"?>
<svg xmlns="http://www.w3.org/2000/svg" xmlns:xlink="http://www.w3.org/1999/xlink" width="288px" height="280.8px" viewBox="0 0 288 280.8" version="1.1" id="Fig:dens">
  <metadata xmlns:gridsvg="http://www.stat.auckland.ac.nz/~paul/R/gridSVG/">
    <gridsvg:generator name="gridSVG" version="1.7-2" time="2021-04-13 10:18:50"/>
    <gridsvg:argument name="name" value="C:/Users/susri/Documents/BI 586/FinalProject/dens.svg"/>
    <gridsvg:argument name="exportCoords" value="none"/>
    <gridsvg:argument name="exportMappings" value="none"/>
    <gridsvg:argument name="exportJS" value="none"/>
    <gridsvg:argument name="res" value="72"/>
    <gridsvg:argument name="prefix" value="Fig:dens"/>
    <gridsvg:argument name="addClasses" value="FALSE"/>
    <gridsvg:argument name="indent" value="TRUE"/>
    <gridsvg:argument name="htmlWrapper" value="FALSE"/>
    <gridsvg:argument name="usePaths" value="none"/>
    <gridsvg:argument name="uniqueNames" value="TRUE"/>
    <gridsvg:separator name="id.sep" value="."/>
    <gridsvg:separator name="gPath.sep" value="::"/>
    <gridsvg:separator name="vpPath.sep" value="::"/>
  </metadata>
  <g transform="translate(0, 280.8) scale(1, -1)">
    <g id="Fig:densgridSVG" fill="none" stroke="rgb(0,0,0)" stroke-dasharray="none" stroke-width="0.75" font-size="12" font-family="Helvetica, Arial, FreeSans, Liberation Sans, Nimbus Sans L, sans-serif" opacity="1" stroke-linecap="round" stroke-linejoin="round" stroke-miterlimit="10" stroke-opacity="1" fill-opacity="0" font-weight="normal" font-style="normal">
      <g id="Fig:densplot_01.background.1">
        <rect id="Fig:densplot_01.background.1.1" x="0" y="0" width="288" height="280.8" transform="" fill="none" stroke="none" stroke-opacity="0" fill-opacity="0"/>
      </g>
      <g id="Fig:densplot_01.toplevel.vp.1" font-size="12">
        <g id="Fig:densplot_01.main.vp.1">
          <g id="Fig:densGRID.VP.19.1">
            <g id="Fig:dens.key.frame.1">
              <g id="Fig:densGRID.VP.20.1">
                <g id="Fig:densGRID.cellGrob.26.1">
                  <g id="Fig:dens.key.background.1">
                    <rect id="Fig:dens.key.background.1.1" x="109.64" y="251.81" width="68.71" height="22.99" transform="" fill="none" opacity="1" stroke="none" stroke-opacity="0" fill-opacity="0"/>
                  </g>
                </g>
              </g>
              <g id="Fig:densGRID.VP.21.1">
                <g id="Fig:densGRID.cellGrob.27.1">
                  <g id="Fig:dens.key.rect.1.1.1">
                    <rect id="Fig:dens.key.rect.1.1.1.1" x="116.32" y="263.3" width="33.36" height="11.5" transform="" opacity="1" fill="rgb(228,26,28)" stroke="rgb(0,0,0)" stroke-opacity="1" fill-opacity="1"/>
                  </g>
                </g>
              </g>
              <g id="Fig:densGRID.VP.22.1">
                <g id="Fig:densGRID.cellGrob.28.1">
                  <g id="Fig:dens.key.rect.1.2.1">
                    <rect id="Fig:dens.key.rect.1.2.1.1" x="116.32" y="251.81" width="33.36" height="11.5" transform="" opacity="1" fill="rgb(55,126,184)" stroke="rgb(0,0,0)" stroke-opacity="1" fill-opacity="1"/>
                  </g>
                </g>
              </g>
              <g id="Fig:densGRID.VP.23.1">
                <g id="Fig:densGRID.cellGrob.29.1">
                  <g id="Fig:dens.key.text.2.1.1">
                    <g id="Fig:dens.key.text.2.1.1.1" transform="translate(163.02, 269.05)" stroke-width="0.1">
                      <g id="Fig:dens.key.text.2.1.1.1.scale" transform="scale(1, -1)">
                        <text x="0" y="0" id="Fig:dens.key.text.2.1.1.1.text" text-anchor="start" stroke="rgb(0,0,0)" opacity="1" fill="rgb(0,0,0)" stroke-opacity="1" fill-opacity="1" font-size="12" font-weight="normal" font-style="normal">
                          <tspan id="Fig:dens.key.text.2.1.1.1.tspan.1" dy="4.31" x="0">B</tspan>
                        </text>
                      </g>
                    </g>
                  </g>
                </g>
              </g>
              <g id="Fig:densGRID.VP.24.1">
                <g id="Fig:densGRID.cellGrob.30.1">
                  <g id="Fig:dens.key.text.2.2.1">
                    <g id="Fig:dens.key.text.2.2.1.1" transform="translate(163.02, 257.56)" stroke-width="0.1">
                      <g id="Fig:dens.key.text.2.2.1.1.scale" transform="scale(1, -1)">
                        <text x="0" y="0" id="Fig:dens.key.text.2.2.1.1.text" text-anchor="start" stroke="rgb(0,0,0)" opacity="1" fill="rgb(0,0,0)" stroke-opacity="1" fill-opacity="1" font-size="12" font-weight="normal" font-style="normal">
                          <tspan id="Fig:dens.key.text.2.2.1.1.tspan.1" dy="4.31" x="0">D</tspan>
                        </text>
                      </g>
                    </g>
                  </g>
                </g>
              </g>
            </g>
          </g>
        </g>
        <g id="Fig:densplot_01.ylab.vp.1">
          <g id="Fig:densplot_01.ylab.1">
            <g id="Fig:densplot_01.ylab.1.1" transform="translate(10.31, 141)" stroke-width="0.1">
              <g id="Fig:densplot_01.ylab.1.1.scale" transform="scale(1, -1)">
                <text x="0" y="0" id="Fig:densplot_01.ylab.1.1.text" transform="rotate(-90)" text-anchor="middle" opacity="1" stroke="rgb(0,0,0)" fill="rgb(0,0,0)" stroke-opacity="1" fill-opacity="1" font-size="12" font-weight="normal" font-style="normal">
                  <tspan id="Fig:densplot_01.ylab.1.1.tspan.1" dy="4.31" x="0">Density</tspan>
                </text>
              </g>
            </g>
          </g>
        </g>
        <g id="Fig:densplot_01.figure.vp.1"/>
        <defs>
          <clipPath id="Fig:densplot_01.panel.1.1.vp.1.clipPath">
            <rect x="44.8" y="42.19" width="231.2" height="197.62" fill="none" stroke="none"/>
          </clipPath>
        </defs>
        <g id="Fig:densplot_01.panel.1.1.vp.1" clip-path="url(#Fig:densplot_01.panel.1.1.vp.1.clipPath)"/>
        <g id="Fig:densplot_01.strip.1.1.off.vp.1"/>
        <g id="Fig:densplot_01.strip.left.1.1.off.vp.1">
          <g id="Fig:densplot_01.ticks.left.panel.1.1.1">
            <polyline id="Fig:densplot_01.ticks.left.panel.1.1.1.1" points="44.8,54.32 39.13,54.32" stroke="rgb(0,0,0)" opacity="1" stroke-dasharray="none" stroke-width="0.75" stroke-opacity="1" fill="none"/>
            <polyline id="Fig:densplot_01.ticks.left.panel.1.1.1.2" points="44.8,98.47 39.13,98.47" stroke="rgb(0,0,0)" opacity="1" stroke-dasharray="none" stroke-width="0.75" stroke-opacity="1" fill="none"/>
            <polyline id="Fig:densplot_01.ticks.left.panel.1.1.1.3" points="44.8,142.63 39.13,142.63" stroke="rgb(0,0,0)" opacity="1" stroke-dasharray="none" stroke-width="0.75" stroke-opacity="1" fill="none"/>
            <polyline id="Fig:densplot_01.ticks.left.panel.1.1.1.4" points="44.8,186.78 39.13,186.78" stroke="rgb(0,0,0)" opacity="1" stroke-dasharray="none" stroke-width="0.75" stroke-opacity="1" fill="none"/>
            <polyline id="Fig:densplot_01.ticks.left.panel.1.1.1.5" points="44.8,230.93 39.13,230.93" stroke="rgb(0,0,0)" opacity="1" stroke-dasharray="none" stroke-width="0.75" stroke-opacity="1" fill="none"/>
          </g>
          <g id="Fig:densplot_01.ticklabels.left.panel.1.1.1">
            <g id="Fig:densplot_01.ticklabels.left.panel.1.1.1.1" transform="translate(33.47, 54.32)" stroke-width="0.1">
              <g id="Fig:densplot_01.ticklabels.left.panel.1.1.1.1.scale" transform="scale(1, -1)">
                <text x="0" y="0" id="Fig:densplot_01.ticklabels.left.panel.1.1.1.1.text" transform="rotate(-90)" text-anchor="middle" stroke="rgb(0,0,0)" opacity="1" fill="rgb(0,0,0)" stroke-opacity="1" fill-opacity="1" font-size="9.6" font-weight="normal" font-style="normal">
                  <tspan id="Fig:densplot_01.ticklabels.left.panel.1.1.1.1.tspan.1" dy="0" x="0">0.0</tspan>
                </text>
              </g>
            </g>
            <g id="Fig:densplot_01.ticklabels.left.panel.1.1.1.2" transform="translate(33.47, 98.47)" stroke-width="0.1">
              <g id="Fig:densplot_01.ticklabels.left.panel.1.1.1.2.scale" transform="scale(1, -1)">
                <text x="0" y="0" id="Fig:densplot_01.ticklabels.left.panel.1.1.1.2.text" transform="rotate(-90)" text-anchor="middle" stroke="rgb(0,0,0)" opacity="1" fill="rgb(0,0,0)" stroke-opacity="1" fill-opacity="1" font-size="9.6" font-weight="normal" font-style="normal">
                  <tspan id="Fig:densplot_01.ticklabels.left.panel.1.1.1.2.tspan.1" dy="0" x="0">0.5</tspan>
                </text>
              </g>
            </g>
            <g id="Fig:densplot_01.ticklabels.left.panel.1.1.1.3" transform="translate(33.47, 142.63)" stroke-width="0.1">
              <g id="Fig:densplot_01.ticklabels.left.panel.1.1.1.3.scale" transform="scale(1, -1)">
                <text x="0" y="0" id="Fig:densplot_01.ticklabels.left.panel.1.1.1.3.text" transform="rotate(-90)" text-anchor="middle" stroke="rgb(0,0,0)" opacity="1" fill="rgb(0,0,0)" stroke-opacity="1" fill-opacity="1" font-size="9.6" font-weight="normal" font-style="normal">
                  <tspan id="Fig:densplot_01.ticklabels.left.panel.1.1.1.3.tspan.1" dy="0" x="0">1.0</tspan>
                </text>
              </g>
            </g>
            <g id="Fig:densplot_01.ticklabels.left.panel.1.1.1.4" transform="translate(33.47, 186.78)" stroke-width="0.1">
              <g id="Fig:densplot_01.ticklabels.left.panel.1.1.1.4.scale" transform="scale(1, -1)">
                <text x="0" y="0" id="Fig:densplot_01.ticklabels.left.panel.1.1.1.4.text" transform="rotate(-90)" text-anchor="middle" stroke="rgb(0,0,0)" opacity="1" fill="rgb(0,0,0)" stroke-opacity="1" fill-opacity="1" font-size="9.6" font-weight="normal" font-style="normal">
                  <tspan id="Fig:densplot_01.ticklabels.left.panel.1.1.1.4.tspan.1" dy="0" x="0">1.5</tspan>
                </text>
              </g>
            </g>
            <g id="Fig:densplot_01.ticklabels.left.panel.1.1.1.5" transform="translate(33.47, 230.93)" stroke-width="0.1">
              <g id="Fig:densplot_01.ticklabels.left.panel.1.1.1.5.scale" transform="scale(1, -1)">
                <text x="0" y="0" id="Fig:densplot_01.ticklabels.left.panel.1.1.1.5.text" transform="rotate(-90)" text-anchor="middle" stroke="rgb(0,0,0)" opacity="1" fill="rgb(0,0,0)" stroke-opacity="1" fill-opacity="1" font-size="9.6" font-weight="normal" font-style="normal">
                  <tspan id="Fig:densplot_01.ticklabels.left.panel.1.1.1.5.tspan.1" dy="0" x="0">2.0</tspan>
                </text>
              </g>
            </g>
          </g>
        </g>
        <g id="Fig:densplot_01.panel.1.1.off.vp.1">
          <g id="Fig:densplot_01.ticks.bottom.panel.1.1.1">
            <polyline id="Fig:densplot_01.ticks.bottom.panel.1.1.1.1" points="88.78,42.19 88.78,36.52" stroke="rgb(0,0,0)" opacity="1" stroke-dasharray="none" stroke-width="0.75" stroke-opacity="1" fill="none"/>
            <polyline id="Fig:densplot_01.ticks.bottom.panel.1.1.1.2" points="152.26,42.19 152.26,36.52" stroke="rgb(0,0,0)" opacity="1" stroke-dasharray="none" stroke-width="0.75" stroke-opacity="1" fill="none"/>
            <polyline id="Fig:densplot_01.ticks.bottom.panel.1.1.1.3" points="215.73,42.19 215.73,36.52" stroke="rgb(0,0,0)" opacity="1" stroke-dasharray="none" stroke-width="0.75" stroke-opacity="1" fill="none"/>
          </g>
          <g id="Fig:densplot_01.ticklabels.bottom.panel.1.1.1">
            <g id="Fig:densplot_01.ticklabels.bottom.panel.1.1.1.1" transform="translate(88.78, 30.85)" stroke-width="0.1">
              <g id="Fig:densplot_01.ticklabels.bottom.panel.1.1.1.1.scale" transform="scale(1, -1)">
                <text x="0" y="0" id="Fig:densplot_01.ticklabels.bottom.panel.1.1.1.1.text" text-anchor="middle" stroke="rgb(0,0,0)" opacity="1" fill="rgb(0,0,0)" stroke-opacity="1" fill-opacity="1" font-size="9.6" font-weight="normal" font-style="normal">
                  <tspan id="Fig:densplot_01.ticklabels.bottom.panel.1.1.1.1.tspan.1" dy="7.18" x="0">2</tspan>
                </text>
              </g>
            </g>
            <g id="Fig:densplot_01.ticklabels.bottom.panel.1.1.1.2" transform="translate(152.26, 30.85)" stroke-width="0.1">
              <g id="Fig:densplot_01.ticklabels.bottom.panel.1.1.1.2.scale" transform="scale(1, -1)">
                <text x="0" y="0" id="Fig:densplot_01.ticklabels.bottom.panel.1.1.1.2.text" text-anchor="middle" stroke="rgb(0,0,0)" opacity="1" fill="rgb(0,0,0)" stroke-opacity="1" fill-opacity="1" font-size="9.6" font-weight="normal" font-style="normal">
                  <tspan id="Fig:densplot_01.ticklabels.bottom.panel.1.1.1.2.tspan.1" dy="7.18" x="0">4</tspan>
                </text>
              </g>
            </g>
            <g id="Fig:densplot_01.ticklabels.bottom.panel.1.1.1.3" transform="translate(215.73, 30.85)" stroke-width="0.1">
              <g id="Fig:densplot_01.ticklabels.bottom.panel.1.1.1.3.scale" transform="scale(1, -1)">
                <text x="0" y="0" id="Fig:densplot_01.ticklabels.bottom.panel.1.1.1.3.text" text-anchor="middle" stroke="rgb(0,0,0)" opacity="1" fill="rgb(0,0,0)" stroke-opacity="1" fill-opacity="1" font-size="9.6" font-weight="normal" font-style="normal">
                  <tspan id="Fig:densplot_01.ticklabels.bottom.panel.1.1.1.3.tspan.1" dy="7.18" x="0">6</tspan>
                </text>
              </g>
            </g>
          </g>
        </g>
        <defs>
          <clipPath id="Fig:densplot_01.panel.1.1.vp.2.clipPath">
            <rect x="44.8" y="42.19" width="231.2" height="197.62" fill="none" stroke="none"/>
          </clipPath>
        </defs>
        <g id="Fig:densplot_01.panel.1.1.vp.2" clip-path="url(#Fig:densplot_01.panel.1.1.vp.2.clipPath)">
          <g id="Fig:densplot_01.xyplot.lines.group.1.panel.1.1.1">
            <polyline id="Fig:densplot_01.xyplot.lines.group.1.panel.1.1.1.1" points="62.84,56.3 63.23,56.86 63.61,57.57 63.99,58.46 64.37,59.55 64.75,60.86 65.13,62.44 65.51,64.3 65.89,66.5 66.28,69.14 66.66,72.22 67.04,75.76 67.42,79.78 67.8,84.32 68.18,89.39 68.56,95.05 68.94,101.35 69.33,108.18 69.71,115.52 70.09,123.34 70.47,131.57 70.85,140.16 71.23,149.04 71.61,158.06 72,167.08 72.38,175.97 72.76,184.63 73.14,192.89 73.52,200.6 73.9,207.5 74.28,213.55 74.66,218.65 75.05,222.71 75.43,225.64 75.81,227.38 76.19,227.67 76.57,226.67 76.95,224.46 77.33,221.09 77.72,216.61 78.1,211.11 78.48,204.64 78.86,197.29 79.24,189.33 79.62,180.91 80,172.14 80.38,163.18 80.77,154.13 81.15,145.17 81.53,136.42 81.91,127.97 82.29,119.89 82.67,112.26 83.05,105.11 83.43,98.51 83.82,92.56 84.2,87.15 84.58,82.29 84.96,77.96 85.34,74.13 85.72,70.79 86.1,67.95 86.49,65.53 86.87,63.47 87.25,61.72 87.63,60.25 88.01,59.03 88.39,58.04 88.77,57.25 89.15,56.61 89.54,56.09 89.92,55.68 90.3,55.36 90.68,55.1 91.06,54.91 91.44,54.76 91.82,54.65 92.21,54.56 92.59,54.5 92.97,54.45 93.35,54.41 93.73,54.39 94.11,54.37 94.49,54.35 94.87,54.34 95.26,54.34 95.64,54.33 96.02,54.33 96.4,54.33 96.78,54.33 97.16,54.32 97.54,54.32 97.92,54.32 98.31,54.32 98.69,54.32 99.07,54.32 99.45,54.32 99.83,54.32 100.21,54.32 100.59,54.32 100.98,54.32 101.36,54.32 101.74,54.32 102.12,54.32 102.5,54.32 102.88,54.33 103.26,54.33 103.64,54.33 104.03,54.33 104.41,54.33 104.79,54.34 105.17,54.34 105.55,54.35 105.93,54.36 106.31,54.37 106.7,54.39 107.08,54.42 107.46,54.45 107.84,54.48 108.22,54.53 108.6,54.59 108.98,54.67 109.36,54.76 109.75,54.88 110.13,55.02 110.51,55.19 110.89,55.4 111.27,55.64 111.65,55.93 112.03,56.27 112.41,56.65 112.8,57.1 113.18,57.6 113.56,58.17 113.94,58.81 114.32,59.51 114.7,60.28 115.08,61.1 115.47,61.99 115.85,62.93 116.23,63.92 116.61,64.94 116.99,65.98 117.37,67.02 117.75,68.06 118.13,69.08 118.52,70.05 118.9,70.96 119.28,71.8 119.66,72.55 120.04,73.19 120.42,73.71 120.8,74.09 121.19,74.33 121.57,74.42 121.95,74.37 122.33,74.18 122.71,73.85 123.09,73.38 123.47,72.78 123.85,72.07 124.24,71.27 124.62,70.4 125,69.47 125.38,68.5 125.76,67.51 126.14,66.52 126.52,65.54 126.9,64.6 127.29,63.7 127.67,62.85 128.05,62.08 128.43,61.4 128.81,60.8 129.19,60.3 129.57,59.89 129.96,59.58 130.34,59.36 130.72,59.24 131.1,59.23 131.48,59.29 131.86,59.44 132.24,59.66 132.62,59.94 133.01,60.29 133.39,60.68 133.77,61.11 134.15,61.57 134.53,62.03 134.91,62.5 135.29,62.96 135.68,63.4 136.06,63.8 136.44,64.17 136.82,64.48 137.2,64.75 137.58,64.95 137.96,65.09 138.34,65.16 138.73,65.16 139.11,65.1 139.49,64.99 139.87,64.82 140.25,64.62 140.63,64.37 141.01,64.09 141.39,63.81 141.78,63.51 142.16,63.22 142.54,62.95 142.92,62.7 143.3,62.48 143.68,62.3 144.06,62.16 144.45,62.06 144.83,62 145.21,61.99 145.59,62.02 145.97,62.09 146.35,62.19 146.73,62.31 147.11,62.46 147.5,62.61 147.88,62.76 148.26,62.92 148.64,63.06 149.02,63.18 149.4,63.29 149.78,63.37 150.17,63.43 150.55,63.45 150.93,63.45 151.31,63.42 151.69,63.38 152.07,63.31 152.45,63.23 152.83,63.14 153.22,63.05 153.6,62.95 153.98,62.86 154.36,62.77 154.74,62.69 155.12,62.63 155.5,62.57 155.88,62.53 156.27,62.51 156.65,62.49 157.03,62.48 157.41,62.48 157.79,62.48 158.17,62.49 158.55,62.5 158.94,62.5 159.32,62.5 159.7,62.5 160.08,62.49 160.46,62.47 160.84,62.45 161.22,62.42 161.6,62.39 161.99,62.36 162.37,62.32 162.75,62.28 163.13,62.24 163.51,62.2 163.89,62.17 164.27,62.14 164.66,62.1 165.04,62.08 165.42,62.05 165.8,62.03 166.18,62.01 166.56,61.99 166.94,61.97 167.32,61.95 167.71,61.94 168.09,61.92 168.47,61.9 168.85,61.88 169.23,61.86 169.61,61.83 169.99,61.81 170.37,61.79 170.76,61.76 171.14,61.74 171.52,61.71 171.9,61.68 172.28,61.65 172.66,61.62 173.04,61.59 173.43,61.56 173.81,61.53 174.19,61.5 174.57,61.47 174.95,61.44 175.33,61.4 175.71,61.37 176.09,61.34 176.48,61.31 176.86,61.28 177.24,61.25 177.62,61.22 178,61.19 178.38,61.17 178.76,61.14 179.15,61.12 179.53,61.1 179.91,61.08 180.29,61.06 180.67,61.04 181.05,61.02 181.43,61.01 181.81,60.99 182.2,60.97 182.58,60.96 182.96,60.94 183.34,60.92 183.72,60.9 184.1,60.87 184.48,60.85 184.86,60.82 185.25,60.78 185.63,60.75 186.01,60.71 186.39,60.66 186.77,60.61 187.15,60.56 187.53,60.5 187.92,60.43 188.3,60.37 188.68,60.3 189.06,60.22 189.44,60.15 189.82,60.07 190.2,59.99 190.58,59.91 190.97,59.83 191.35,59.75 191.73,59.68 192.11,59.6 192.49,59.53 192.87,59.46 193.25,59.4 193.64,59.34 194.02,59.29 194.4,59.24 194.78,59.2 195.16,59.16 195.54,59.13 195.92,59.11 196.3,59.09 196.69,59.08 197.07,59.07 197.45,59.06 197.83,59.06 198.21,59.07 198.59,59.07 198.97,59.08 199.36,59.09 199.74,59.09 200.12,59.1 200.5,59.1 200.88,59.1 201.26,59.1 201.64,59.09 202.02,59.08 202.41,59.07 202.79,59.05 203.17,59.02 203.55,58.99 203.93,58.96 204.31,58.92 204.69,58.87 205.07,58.83 205.46,58.77 205.84,58.72 206.22,58.66 206.6,58.6 206.98,58.54 207.36,58.48 207.74,58.43 208.13,58.37 208.51,58.31 208.89,58.25 209.27,58.2 209.65,58.15 210.03,58.1 210.41,58.06 210.79,58.02 211.18,57.99 211.56,57.95 211.94,57.93 212.32,57.9 212.7,57.88 213.08,57.86 213.46,57.85 213.85,57.84 214.23,57.83 214.61,57.82 214.99,57.82 215.37,57.81 215.75,57.81 216.13,57.81 216.51,57.8 216.9,57.8 217.28,57.8 217.66,57.79 218.04,57.79 218.42,57.78 218.8,57.77 219.18,57.76 219.56,57.75 219.95,57.74 220.33,57.72 220.71,57.71 221.09,57.69 221.47,57.67 221.85,57.65 222.23,57.62 222.62,57.6 223,57.57 223.38,57.54 223.76,57.52 224.14,57.49 224.52,57.46 224.9,57.43 225.28,57.4 225.67,57.36 226.05,57.33 226.43,57.3 226.81,57.27 227.19,57.24 227.57,57.2 227.95,57.17 228.34,57.14 228.72,57.1 229.1,57.07 229.48,57.04 229.86,57.01 230.24,56.98 230.62,56.94 231,56.91 231.39,56.88 231.77,56.86 232.15,56.83 232.53,56.8 232.91,56.78 233.29,56.75 233.67,56.73 234.05,56.7 234.44,56.68 234.82,56.66 235.2,56.63 235.58,56.61 235.96,56.58 236.34,56.56 236.72,56.53 237.11,56.5 237.49,56.47 237.87,56.44 238.25,56.4 238.63,56.37 239.01,56.33 239.39,56.28 239.77,56.23 240.16,56.18 240.54,56.13 240.92,56.07 241.3,56.01 241.68,55.95 242.06,55.88 242.44,55.81 242.83,55.74 243.21,55.67 243.59,55.6 243.97,55.52 244.35,55.45 244.73,55.37 245.11,55.3 245.49,55.22 245.88,55.15 246.26,55.08 246.64,55.02 247.02,54.95 247.4,54.89 247.78,54.83 248.16,54.78 248.54,54.73 248.93,54.68 249.31,54.64 249.69,54.6 250.07,54.56 250.45,54.53 250.83,54.5 251.21,54.47 251.6,54.45 251.98,54.43 252.36,54.41 252.74,54.4 253.12,54.38 253.5,54.37 253.88,54.36 254.26,54.36 254.65,54.35 255.03,54.34 255.41,54.34 255.79,54.34 256.17,54.33 256.55,54.33 256.93,54.33 257.32,54.33 257.7,54.33" stroke-dasharray="none" stroke="rgb(228,26,28)" stroke-width="0.75" opacity="1" stroke-opacity="1" fill="none"/>
          </g>
          <g id="Fig:densplot_01.xyplot.lines.group.2.panel.1.1.1">
            <polyline id="Fig:densplot_01.xyplot.lines.group.2.panel.1.1.1.1" points="59.28,56.04 59.67,56.43 60.07,56.9 60.46,57.46 60.85,58.11 61.24,58.9 61.63,59.82 62.03,60.89 62.42,62.12 62.81,63.53 63.2,65.15 63.59,67.02 63.99,69.13 64.38,71.49 64.77,74.11 65.16,77.01 65.55,80.28 65.95,83.87 66.34,87.76 66.73,91.96 67.12,96.47 67.51,101.33 67.91,106.53 68.3,111.99 68.69,117.69 69.08,123.62 69.47,129.73 69.87,136.02 70.26,142.39 70.65,148.79 71.04,155.16 71.43,161.45 71.83,167.58 72.22,173.45 72.61,179.02 73,184.23 73.39,189.04 73.79,193.37 74.18,197.02 74.57,200.09 74.96,202.53 75.35,204.31 75.75,205.42 76.14,205.71 76.53,205.22 76.92,204.05 77.31,202.2 77.71,199.69 78.1,196.53 78.49,192.66 78.88,188.28 79.27,183.43 79.67,178.17 80.06,172.56 80.45,166.61 80.84,160.45 81.23,154.15 81.63,147.77 82.02,141.37 82.41,135.01 82.8,128.77 83.19,122.67 83.59,116.77 83.98,111.09 84.37,105.65 84.76,100.55 85.15,95.76 85.55,91.28 85.94,87.11 86.33,83.25 86.72,79.72 87.11,76.56 87.51,73.69 87.9,71.09 88.29,68.76 88.68,66.68 89.07,64.88 89.47,63.31 89.86,61.92 90.25,60.71 90.64,59.65 91.03,58.76 91.43,58.01 91.82,57.37 92.21,56.82 92.6,56.36 92.99,55.97 93.39,55.66 93.78,55.4 94.17,55.19 94.56,55.01 94.95,54.87 95.35,54.75 95.74,54.66 96.13,54.59 96.52,54.53 96.91,54.48 97.31,54.44 97.7,54.42 98.09,54.39 98.48,54.38 98.87,54.36 99.27,54.35 99.66,54.35 100.05,54.34 100.44,54.34 100.83,54.33 101.23,54.33 101.62,54.33 102.01,54.33 102.4,54.33 102.79,54.32 103.19,54.32 103.58,54.32 103.97,54.32 104.36,54.32 104.75,54.32 105.15,54.32 105.54,54.32 105.93,54.32 106.32,54.32 106.71,54.32 107.11,54.32 107.5,54.32 107.89,54.32 108.28,54.32 108.67,54.32 109.07,54.32 109.46,54.32 109.85,54.32 110.24,54.32 110.63,54.32 111.03,54.32 111.42,54.32 111.81,54.32 112.2,54.32 112.59,54.32 112.99,54.32 113.38,54.32 113.77,54.32 114.16,54.32 114.55,54.32 114.95,54.32 115.34,54.32 115.73,54.32 116.12,54.32 116.51,54.32 116.91,54.32 117.3,54.32 117.69,54.32 118.08,54.33 118.47,54.33 118.87,54.33 119.26,54.33 119.65,54.33 120.04,54.34 120.43,54.34 120.83,54.34 121.22,54.35 121.61,54.36 122,54.37 122.39,54.38 122.79,54.39 123.18,54.41 123.57,54.44 123.96,54.46 124.35,54.5 124.75,54.54 125.14,54.59 125.53,54.65 125.92,54.72 126.31,54.8 126.71,54.9 127.1,55.01 127.49,55.14 127.88,55.3 128.27,55.47 128.67,55.67 129.06,55.9 129.45,56.15 129.84,56.45 130.23,56.77 130.63,57.14 131.02,57.53 131.41,57.96 131.8,58.44 132.19,58.95 132.59,59.51 132.98,60.1 133.37,60.72 133.76,61.38 134.15,62.07 134.55,62.79 134.94,63.52 135.33,64.28 135.72,65.04 136.11,65.8 136.51,66.56 136.9,67.3 137.29,68.03 137.68,68.73 138.07,69.38 138.47,69.99 138.86,70.54 139.25,71.03 139.64,71.46 140.03,71.82 140.43,72.08 140.82,72.27 141.21,72.36 141.6,72.38 141.99,72.31 142.39,72.16 142.78,71.91 143.17,71.58 143.56,71.18 143.95,70.72 144.35,70.19 144.74,69.61 145.13,68.97 145.52,68.3 145.91,67.6 146.31,66.88 146.7,66.15 147.09,65.42 147.48,64.69 147.87,63.97 148.27,63.28 148.66,62.61 149.05,61.98 149.44,61.38 149.83,60.84 150.23,60.33 150.62,59.87 151.01,59.47 151.4,59.13 151.79,58.85 152.19,58.61 152.58,58.43 152.97,58.3 153.36,58.23 153.75,58.21 154.15,58.24 154.54,58.32 154.93,58.43 155.32,58.59 155.71,58.78 156.11,59.01 156.5,59.26 156.89,59.53 157.28,59.82 157.67,60.12 158.07,60.44 158.46,60.75 158.85,61.06 159.24,61.36 159.63,61.66 160.03,61.93 160.42,62.18 160.81,62.41 161.2,62.62 161.59,62.79 161.99,62.93 162.38,63.03 162.77,63.1 163.16,63.14 163.55,63.14 163.95,63.11 164.34,63.04 164.73,62.95 165.12,62.83 165.51,62.68 165.91,62.52 166.3,62.34 166.69,62.15 167.08,61.95 167.47,61.76 167.87,61.56 168.26,61.37 168.65,61.18 169.04,61.01 169.43,60.86 169.83,60.72 170.22,60.6 170.61,60.5 171,60.43 171.39,60.37 171.79,60.33 172.18,60.32 172.57,60.32 172.96,60.34 173.35,60.37 173.75,60.41 174.14,60.46 174.53,60.51 174.92,60.57 175.31,60.63 175.71,60.69 176.1,60.74 176.49,60.79 176.88,60.83 177.27,60.86 177.67,60.88 178.06,60.89 178.45,60.9 178.84,60.89 179.23,60.87 179.63,60.84 180.02,60.81 180.41,60.77 180.8,60.72 181.19,60.67 181.59,60.62 181.98,60.57 182.37,60.51 182.76,60.46 183.15,60.41 183.55,60.36 183.94,60.31 184.33,60.27 184.72,60.23 185.11,60.19 185.51,60.16 185.9,60.13 186.29,60.1 186.68,60.07 187.07,60.04 187.47,60.01 187.86,59.98 188.25,59.95 188.64,59.91 189.03,59.88 189.43,59.84 189.82,59.79 190.21,59.75 190.6,59.7 190.99,59.65 191.39,59.6 191.78,59.54 192.17,59.49 192.56,59.43 192.95,59.37 193.35,59.31 193.74,59.25 194.13,59.2 194.52,59.14 194.91,59.08 195.31,59.03 195.7,58.97 196.09,58.92 196.48,58.87 196.87,58.83 197.27,58.78 197.66,58.74 198.05,58.7 198.44,58.66 198.83,58.62 199.23,58.59 199.62,58.55 200.01,58.52 200.4,58.49 200.79,58.46 201.19,58.44 201.58,58.41 201.97,58.39 202.36,58.36 202.75,58.34 203.15,58.32 203.54,58.31 203.93,58.29 204.32,58.27 204.71,58.26 205.11,58.24 205.5,58.23 205.89,58.21 206.28,58.2 206.67,58.19 207.07,58.17 207.46,58.16 207.85,58.15 208.24,58.14 208.63,58.12 209.03,58.11 209.42,58.09 209.81,58.08 210.2,58.06 210.59,58.05 210.99,58.03 211.38,58.01 211.77,57.99 212.16,57.97 212.55,57.95 212.95,57.93 213.34,57.91 213.73,57.88 214.12,57.86 214.51,57.84 214.91,57.81 215.3,57.79 215.69,57.76 216.08,57.74 216.47,57.71 216.87,57.68 217.26,57.66 217.65,57.63 218.04,57.61 218.43,57.58 218.83,57.55 219.22,57.53 219.61,57.5 220,57.48 220.39,57.45 220.79,57.43 221.18,57.41 221.57,57.38 221.96,57.36 222.35,57.33 222.75,57.31 223.14,57.29 223.53,57.26 223.92,57.24 224.31,57.22 224.71,57.19 225.1,57.17 225.49,57.14 225.88,57.12 226.27,57.09 226.67,57.07 227.06,57.04 227.45,57.01 227.84,56.98 228.23,56.96 228.63,56.93 229.02,56.9 229.41,56.87 229.8,56.84 230.19,56.8 230.59,56.77 230.98,56.74 231.37,56.71 231.76,56.68 232.15,56.64 232.55,56.61 232.94,56.58 233.33,56.55 233.72,56.51 234.11,56.48 234.51,56.45 234.9,56.41 235.29,56.38 235.68,56.34 236.07,56.31 236.47,56.27 236.86,56.23 237.25,56.2 237.64,56.16 238.03,56.12 238.43,56.08 238.82,56.03 239.21,55.99 239.6,55.94 239.99,55.89 240.39,55.85 240.78,55.8 241.17,55.74 241.56,55.69 241.95,55.64 242.35,55.58 242.74,55.53 243.13,55.47 243.52,55.41 243.91,55.35 244.31,55.3 244.7,55.24 245.09,55.18 245.48,55.13 245.87,55.07 246.27,55.02 246.66,54.97 247.05,54.92 247.44,54.87 247.83,54.83 248.23,54.78 248.62,54.74 249.01,54.7 249.4,54.66 249.79,54.63 250.19,54.6 250.58,54.57 250.97,54.54 251.36,54.51 251.75,54.49 252.15,54.47 252.54,54.45 252.93,54.44 253.32,54.42 253.71,54.41 254.11,54.39 254.5,54.38 254.89,54.38 255.28,54.37 255.67,54.36 256.07,54.35 256.46,54.35 256.85,54.34 257.24,54.34 257.63,54.34 258.03,54.33 258.42,54.33 258.81,54.33 259.2,54.33 259.59,54.33" stroke-dasharray="none" stroke="rgb(228,26,28)" stroke-width="0.75" opacity="1" stroke-opacity="1" fill="none"/>
          </g>
          <g id="Fig:densplot_01.xyplot.lines.group.3.panel.1.1.1">
            <polyline id="Fig:densplot_01.xyplot.lines.group.3.panel.1.1.1.1" points="61.27,54.67 61.66,54.76 62.05,54.87 62.44,55.01 62.83,55.18 63.22,55.37 63.61,55.61 64,55.88 64.39,56.2 64.77,56.58 65.16,57.02 65.55,57.52 65.94,58.09 66.33,58.73 66.72,59.45 67.11,60.25 67.5,61.15 67.89,62.12 68.27,63.18 68.66,64.32 69.05,65.53 69.44,66.82 69.83,68.18 70.22,69.59 70.61,71.04 71,72.52 71.39,74.01 71.77,75.5 72.16,76.96 72.55,78.38 72.94,79.74 73.33,81.03 73.72,82.24 74.11,83.32 74.5,84.28 74.89,85.1 75.27,85.79 75.66,86.35 76.05,86.76 76.44,87.03 76.83,87.16 77.22,87.16 77.61,87.07 78,86.89 78.39,86.64 78.77,86.34 79.16,86.01 79.55,85.68 79.94,85.37 80.33,85.11 80.72,84.9 81.11,84.78 81.5,84.78 81.89,84.88 82.27,85.11 82.66,85.45 83.05,85.92 83.44,86.52 83.83,87.25 84.22,88.09 84.61,89.03 85,90.05 85.39,91.13 85.77,92.27 86.16,93.43 86.55,94.61 86.94,95.77 87.33,96.91 87.72,98.01 88.11,99.04 88.5,100 88.88,100.86 89.27,101.64 89.66,102.31 90.05,102.89 90.44,103.35 90.83,103.69 91.22,103.92 91.61,104.06 92,104.1 92.38,104.05 92.77,103.91 93.16,103.69 93.55,103.39 93.94,103.04 94.33,102.63 94.72,102.17 95.11,101.67 95.5,101.14 95.88,100.57 96.27,99.99 96.66,99.39 97.05,98.78 97.44,98.16 97.83,97.54 98.22,96.91 98.61,96.29 99,95.67 99.38,95.06 99.77,94.45 100.16,93.86 100.55,93.27 100.94,92.7 101.33,92.13 101.72,91.58 102.11,91.05 102.5,90.52 102.88,90.01 103.27,89.51 103.66,89.03 104.05,88.56 104.44,88.09 104.83,87.65 105.22,87.21 105.61,86.79 106,86.37 106.38,85.97 106.77,85.57 107.16,85.19 107.55,84.82 107.94,84.45 108.33,84.09 108.72,83.75 109.11,83.4 109.5,83.07 109.88,82.74 110.27,82.42 110.66,82.11 111.05,81.8 111.44,81.5 111.83,81.21 112.22,80.92 112.61,80.63 113,80.36 113.38,80.08 113.77,79.81 114.16,79.55 114.55,79.29 114.94,79.03 115.33,78.78 115.72,78.53 116.11,78.29 116.5,78.05 116.88,77.81 117.27,77.58 117.66,77.35 118.05,77.12 118.44,76.89 118.83,76.67 119.22,76.45 119.61,76.23 120,76.02 120.38,75.81 120.77,75.59 121.16,75.39 121.55,75.18 121.94,74.98 122.33,74.78 122.72,74.58 123.11,74.38 123.5,74.19 123.88,74 124.27,73.82 124.66,73.64 125.05,73.46 125.44,73.29 125.83,73.12 126.22,72.96 126.61,72.81 127,72.66 127.38,72.52 127.77,72.38 128.16,72.26 128.55,72.14 128.94,72.02 129.33,71.91 129.72,71.81 130.11,71.71 130.5,71.62 130.88,71.54 131.27,71.45 131.66,71.38 132.05,71.3 132.44,71.23 132.83,71.16 133.22,71.09 133.61,71.02 133.99,70.95 134.38,70.88 134.77,70.81 135.16,70.74 135.55,70.67 135.94,70.6 136.33,70.53 136.72,70.45 137.11,70.38 137.49,70.3 137.88,70.22 138.27,70.14 138.66,70.06 139.05,69.97 139.44,69.89 139.83,69.8 140.22,69.72 140.61,69.63 140.99,69.54 141.38,69.45 141.77,69.36 142.16,69.27 142.55,69.17 142.94,69.08 143.33,68.98 143.72,68.88 144.11,68.78 144.49,68.68 144.88,68.58 145.27,68.48 145.66,68.37 146.05,68.26 146.44,68.16 146.83,68.05 147.22,67.94 147.61,67.83 147.99,67.72 148.38,67.61 148.77,67.5 149.16,67.39 149.55,67.28 149.94,67.18 150.33,67.08 150.72,66.98 151.11,66.88 151.49,66.79 151.88,66.7 152.27,66.61 152.66,66.53 153.05,66.45 153.44,66.38 153.83,66.31 154.22,66.24 154.61,66.17 154.99,66.11 155.38,66.05 155.77,65.99 156.16,65.94 156.55,65.88 156.94,65.83 157.33,65.78 157.72,65.73 158.11,65.68 158.49,65.63 158.88,65.59 159.27,65.54 159.66,65.49 160.05,65.44 160.44,65.39 160.83,65.34 161.22,65.29 161.61,65.24 161.99,65.19 162.38,65.14 162.77,65.09 163.16,65.04 163.55,64.98 163.94,64.93 164.33,64.87 164.72,64.82 165.11,64.77 165.49,64.71 165.88,64.65 166.27,64.6 166.66,64.54 167.05,64.49 167.44,64.43 167.83,64.38 168.22,64.32 168.61,64.27 168.99,64.21 169.38,64.16 169.77,64.1 170.16,64.05 170.55,63.99 170.94,63.93 171.33,63.87 171.72,63.81 172.11,63.75 172.49,63.69 172.88,63.63 173.27,63.56 173.66,63.49 174.05,63.42 174.44,63.35 174.83,63.27 175.22,63.19 175.61,63.11 175.99,63.03 176.38,62.95 176.77,62.87 177.16,62.78 177.55,62.69 177.94,62.61 178.33,62.52 178.72,62.44 179.1,62.35 179.49,62.27 179.88,62.19 180.27,62.11 180.66,62.03 181.05,61.96 181.44,61.88 181.83,61.81 182.22,61.74 182.6,61.67 182.99,61.61 183.38,61.54 183.77,61.48 184.16,61.42 184.55,61.36 184.94,61.3 185.33,61.24 185.72,61.18 186.1,61.12 186.49,61.06 186.88,61 187.27,60.95 187.66,60.89 188.05,60.83 188.44,60.77 188.83,60.71 189.22,60.65 189.6,60.59 189.99,60.53 190.38,60.47 190.77,60.41 191.16,60.35 191.55,60.29 191.94,60.24 192.33,60.18 192.72,60.13 193.1,60.08 193.49,60.03 193.88,59.98 194.27,59.93 194.66,59.88 195.05,59.84 195.44,59.8 195.83,59.76 196.22,59.72 196.6,59.68 196.99,59.64 197.38,59.6 197.77,59.56 198.16,59.53 198.55,59.49 198.94,59.46 199.33,59.42 199.72,59.38 200.1,59.34 200.49,59.31 200.88,59.27 201.27,59.23 201.66,59.19 202.05,59.15 202.44,59.11 202.83,59.06 203.22,59.02 203.6,58.98 203.99,58.93 204.38,58.89 204.77,58.84 205.16,58.8 205.55,58.75 205.94,58.71 206.33,58.66 206.72,58.61 207.1,58.57 207.49,58.52 207.88,58.47 208.27,58.43 208.66,58.38 209.05,58.33 209.44,58.29 209.83,58.24 210.22,58.2 210.6,58.15 210.99,58.1 211.38,58.06 211.77,58.01 212.16,57.97 212.55,57.92 212.94,57.88 213.33,57.84 213.72,57.79 214.1,57.75 214.49,57.71 214.88,57.66 215.27,57.62 215.66,57.58 216.05,57.54 216.44,57.5 216.83,57.46 217.22,57.42 217.6,57.38 217.99,57.34 218.38,57.3 218.77,57.27 219.16,57.23 219.55,57.19 219.94,57.16 220.33,57.12 220.72,57.09 221.1,57.05 221.49,57.02 221.88,56.99 222.27,56.96 222.66,56.92 223.05,56.89 223.44,56.86 223.83,56.83 224.21,56.8 224.6,56.77 224.99,56.74 225.38,56.71 225.77,56.68 226.16,56.66 226.55,56.63 226.94,56.6 227.33,56.58 227.71,56.55 228.1,56.53 228.49,56.51 228.88,56.48 229.27,56.46 229.66,56.44 230.05,56.42 230.44,56.4 230.83,56.38 231.21,56.36 231.6,56.35 231.99,56.33 232.38,56.31 232.77,56.29 233.16,56.27 233.55,56.25 233.94,56.23 234.33,56.21 234.71,56.19 235.1,56.17 235.49,56.15 235.88,56.12 236.27,56.1 236.66,56.07 237.05,56.05 237.44,56.02 237.83,55.99 238.21,55.95 238.6,55.92 238.99,55.88 239.38,55.85 239.77,55.81 240.16,55.76 240.55,55.72 240.94,55.67 241.33,55.63 241.71,55.58 242.1,55.53 242.49,55.48 242.88,55.43 243.27,55.37 243.66,55.32 244.05,55.26 244.44,55.21 244.83,55.16 245.21,55.1 245.6,55.05 245.99,55 246.38,54.95 246.77,54.9 247.16,54.85 247.55,54.8 247.94,54.76 248.33,54.72 248.71,54.68 249.1,54.64 249.49,54.61 249.88,54.58 250.27,54.55 250.66,54.52 251.05,54.5 251.44,54.47 251.83,54.45 252.21,54.44 252.6,54.42 252.99,54.41 253.38,54.39 253.77,54.38 254.16,54.37 254.55,54.36 254.94,54.36 255.33,54.35 255.71,54.35 256.1,54.34 256.49,54.34 256.88,54.34 257.27,54.33 257.66,54.33 258.05,54.33 258.44,54.33 258.83,54.33 259.21,54.33 259.6,54.32 259.99,54.32" stroke-dasharray="none" stroke="rgb(228,26,28)" stroke-width="0.75" opacity="1" stroke-opacity="1" fill="none"/>
          </g>
          <g id="Fig:densplot_01.xyplot.lines.group.4.panel.1.1.1">
            <polyline id="Fig:densplot_01.xyplot.lines.group.4.panel.1.1.1.1" points="61.94,54.92 62.33,55.08 62.71,55.28 63.1,55.53 63.49,55.83 63.87,56.19 64.26,56.61 64.64,57.12 65.03,57.72 65.42,58.43 65.8,59.25 66.19,60.18 66.57,61.24 66.96,62.44 67.35,63.81 67.73,65.32 68.12,66.99 68.5,68.81 68.89,70.78 69.28,72.89 69.66,75.15 70.05,77.53 70.43,80.01 70.82,82.56 71.21,85.16 71.59,87.78 71.98,90.39 72.36,92.95 72.75,95.41 73.14,97.75 73.52,99.94 73.91,101.95 74.29,103.72 74.68,105.21 75.06,106.43 75.45,107.37 75.84,108.02 76.22,108.37 76.61,108.41 76.99,108.13 77.38,107.59 77.77,106.81 78.15,105.83 78.54,104.67 78.92,103.37 79.31,101.94 79.7,100.48 80.08,99 80.47,97.55 80.85,96.15 81.24,94.85 81.63,93.69 82.01,92.68 82.4,91.85 82.78,91.19 83.17,90.71 83.56,90.41 83.94,90.32 84.33,90.41 84.71,90.65 85.1,91.03 85.49,91.52 85.87,92.11 86.26,92.77 86.64,93.49 87.03,94.22 87.42,94.96 87.8,95.68 88.19,96.36 88.57,97 88.96,97.55 89.34,98.04 89.73,98.43 90.12,98.75 90.5,98.98 90.89,99.12 91.27,99.16 91.66,99.12 92.05,99 92.43,98.81 92.82,98.56 93.2,98.26 93.59,97.9 93.98,97.49 94.36,97.06 94.75,96.59 95.13,96.11 95.52,95.61 95.91,95.09 96.29,94.57 96.68,94.04 97.06,93.52 97.45,93 97.84,92.48 98.22,91.96 98.61,91.46 98.99,90.96 99.38,90.46 99.77,89.98 100.15,89.5 100.54,89.04 100.92,88.58 101.31,88.12 101.7,87.68 102.08,87.24 102.47,86.81 102.85,86.38 103.24,85.96 103.62,85.54 104.01,85.13 104.4,84.73 104.78,84.32 105.17,83.93 105.55,83.54 105.94,83.16 106.33,82.78 106.71,82.41 107.1,82.04 107.48,81.68 107.87,81.33 108.26,80.99 108.64,80.66 109.03,80.33 109.41,80.01 109.8,79.7 110.19,79.4 110.57,79.11 110.96,78.83 111.34,78.55 111.73,78.28 112.12,78.02 112.5,77.77 112.89,77.52 113.27,77.28 113.66,77.04 114.05,76.81 114.43,76.58 114.82,76.36 115.2,76.14 115.59,75.92 115.98,75.7 116.36,75.48 116.75,75.26 117.13,75.04 117.52,74.82 117.9,74.6 118.29,74.38 118.68,74.16 119.06,73.94 119.45,73.73 119.83,73.51 120.22,73.29 120.61,73.08 120.99,72.87 121.38,72.66 121.76,72.45 122.15,72.25 122.54,72.06 122.92,71.87 123.31,71.68 123.69,71.51 124.08,71.34 124.47,71.18 124.85,71.02 125.24,70.88 125.62,70.74 126.01,70.61 126.4,70.49 126.78,70.38 127.17,70.28 127.55,70.19 127.94,70.11 128.33,70.03 128.71,69.96 129.1,69.9 129.48,69.85 129.87,69.8 130.26,69.76 130.64,69.72 131.03,69.68 131.41,69.65 131.8,69.62 132.18,69.58 132.57,69.55 132.96,69.52 133.34,69.48 133.73,69.44 134.11,69.39 134.5,69.34 134.89,69.29 135.27,69.23 135.66,69.16 136.04,69.09 136.43,69.01 136.82,68.92 137.2,68.83 137.59,68.73 137.97,68.63 138.36,68.52 138.75,68.41 139.13,68.29 139.52,68.18 139.9,68.06 140.29,67.94 140.68,67.82 141.06,67.7 141.45,67.58 141.83,67.47 142.22,67.35 142.61,67.24 142.99,67.14 143.38,67.03 143.76,66.93 144.15,66.84 144.54,66.75 144.92,66.66 145.31,66.58 145.69,66.5 146.08,66.43 146.47,66.36 146.85,66.29 147.24,66.22 147.62,66.16 148.01,66.1 148.39,66.04 148.78,65.99 149.17,65.93 149.55,65.88 149.94,65.83 150.32,65.78 150.71,65.73 151.1,65.68 151.48,65.64 151.87,65.59 152.25,65.54 152.64,65.5 153.03,65.45 153.41,65.4 153.8,65.36 154.18,65.31 154.57,65.26 154.96,65.21 155.34,65.16 155.73,65.11 156.11,65.05 156.5,65 156.89,64.94 157.27,64.88 157.66,64.82 158.04,64.76 158.43,64.7 158.82,64.63 159.2,64.57 159.59,64.5 159.97,64.43 160.36,64.37 160.75,64.3 161.13,64.23 161.52,64.17 161.9,64.1 162.29,64.04 162.67,63.98 163.06,63.92 163.45,63.86 163.83,63.8 164.22,63.74 164.6,63.69 164.99,63.63 165.38,63.58 165.76,63.53 166.15,63.47 166.53,63.42 166.92,63.37 167.31,63.32 167.69,63.26 168.08,63.21 168.46,63.16 168.85,63.1 169.24,63.04 169.62,62.98 170.01,62.92 170.39,62.86 170.78,62.8 171.17,62.74 171.55,62.67 171.94,62.61 172.32,62.54 172.71,62.48 173.1,62.41 173.48,62.35 173.87,62.28 174.25,62.22 174.64,62.16 175.03,62.1 175.41,62.04 175.8,61.98 176.18,61.93 176.57,61.87 176.95,61.82 177.34,61.77 177.73,61.73 178.11,61.68 178.5,61.64 178.88,61.59 179.27,61.55 179.66,61.51 180.04,61.47 180.43,61.43 180.81,61.39 181.2,61.35 181.59,61.31 181.97,61.27 182.36,61.22 182.74,61.18 183.13,61.13 183.52,61.09 183.9,61.04 184.29,60.99 184.67,60.94 185.06,60.88 185.45,60.83 185.83,60.77 186.22,60.71 186.6,60.65 186.99,60.59 187.38,60.53 187.76,60.47 188.15,60.4 188.53,60.34 188.92,60.28 189.31,60.22 189.69,60.16 190.08,60.1 190.46,60.04 190.85,59.98 191.23,59.93 191.62,59.88 192.01,59.83 192.39,59.78 192.78,59.73 193.16,59.69 193.55,59.65 193.94,59.61 194.32,59.57 194.71,59.54 195.09,59.5 195.48,59.47 195.87,59.44 196.25,59.4 196.64,59.37 197.02,59.34 197.41,59.31 197.8,59.28 198.18,59.24 198.57,59.21 198.95,59.17 199.34,59.13 199.73,59.09 200.11,59.05 200.5,59.01 200.88,58.97 201.27,58.92 201.66,58.88 202.04,58.83 202.43,58.78 202.81,58.73 203.2,58.68 203.59,58.63 203.97,58.58 204.36,58.53 204.74,58.48 205.13,58.43 205.51,58.38 205.9,58.33 206.29,58.29 206.67,58.24 207.06,58.2 207.44,58.15 207.83,58.11 208.22,58.07 208.6,58.03 208.99,57.99 209.37,57.95 209.76,57.91 210.15,57.87 210.53,57.84 210.92,57.8 211.3,57.77 211.69,57.73 212.08,57.7 212.46,57.67 212.85,57.63 213.23,57.6 213.62,57.57 214.01,57.54 214.39,57.51 214.78,57.48 215.16,57.45 215.55,57.43 215.94,57.4 216.32,57.37 216.71,57.34 217.09,57.32 217.48,57.29 217.87,57.27 218.25,57.24 218.64,57.22 219.02,57.19 219.41,57.17 219.8,57.14 220.18,57.12 220.57,57.09 220.95,57.07 221.34,57.05 221.72,57.02 222.11,57 222.5,56.97 222.88,56.95 223.27,56.92 223.65,56.9 224.04,56.87 224.43,56.85 224.81,56.82 225.2,56.79 225.58,56.76 225.97,56.73 226.36,56.7 226.74,56.67 227.13,56.64 227.51,56.61 227.9,56.58 228.29,56.55 228.67,56.51 229.06,56.48 229.44,56.45 229.83,56.42 230.22,56.39 230.6,56.37 230.99,56.34 231.37,56.31 231.76,56.29 232.15,56.27 232.53,56.25 232.92,56.23 233.3,56.21 233.69,56.19 234.08,56.17 234.46,56.16 234.85,56.15 235.23,56.13 235.62,56.12 236,56.1 236.39,56.09 236.78,56.07 237.16,56.06 237.55,56.04 237.93,56.02 238.32,56 238.71,55.97 239.09,55.94 239.48,55.91 239.86,55.88 240.25,55.85 240.64,55.81 241.02,55.76 241.41,55.72 241.79,55.67 242.18,55.62 242.57,55.57 242.95,55.51 243.34,55.46 243.72,55.4 244.11,55.34 244.5,55.28 244.88,55.22 245.27,55.16 245.65,55.1 246.04,55.04 246.43,54.99 246.81,54.93 247.2,54.88 247.58,54.83 247.97,54.78 248.36,54.73 248.74,54.69 249.13,54.65 249.51,54.61 249.9,54.58 250.28,54.55 250.67,54.52 251.06,54.49 251.44,54.47 251.83,54.45 252.21,54.43 252.6,54.41 252.99,54.4 253.37,54.39 253.76,54.38 254.14,54.37 254.53,54.36 254.92,54.35 255.3,54.35 255.69,54.34 256.07,54.34 256.46,54.34 256.85,54.33 257.23,54.33 257.62,54.33 258,54.33 258.39,54.33 258.78,54.33 259.16,54.32" stroke-dasharray="none" stroke="rgb(55,126,184)" stroke-width="0.75" opacity="1" stroke-opacity="1" fill="none"/>
          </g>
          <g id="Fig:densplot_01.xyplot.lines.group.5.panel.1.1.1">
            <polyline id="Fig:densplot_01.xyplot.lines.group.5.panel.1.1.1.1" points="59,55.86 59.4,56.21 59.79,56.64 60.19,57.14 60.59,57.73 60.98,58.41 61.38,59.24 61.78,60.2 62.18,61.3 62.57,62.56 62.97,63.99 63.37,65.64 63.76,67.53 64.16,69.64 64.56,71.98 64.95,74.58 65.35,77.44 65.75,80.64 66.14,84.12 66.54,87.87 66.94,91.91 67.33,96.21 67.73,100.83 68.13,105.71 68.53,110.81 68.92,116.11 69.32,121.57 69.72,127.18 70.11,132.89 70.51,138.62 70.91,144.34 71.3,149.99 71.7,155.52 72.1,160.82 72.49,165.85 72.89,170.56 73.29,174.92 73.68,178.86 74.08,182.3 74.48,185.12 74.88,187.38 75.27,189.07 75.67,190.15 76.07,190.62 76.46,190.3 76.86,189.34 77.26,187.78 77.65,185.63 78.05,182.92 78.45,179.62 78.84,175.77 79.24,171.5 79.64,166.85 80.03,161.88 80.43,156.64 80.83,151.14 81.23,145.52 81.62,139.81 82.02,134.08 82.42,128.36 82.81,122.72 83.21,117.23 83.61,111.89 84,106.75 84.4,101.82 84.8,97.13 85.19,92.78 85.59,88.69 85.99,84.87 86.38,81.34 86.78,78.08 87.18,75.15 87.58,72.5 87.97,70.1 88.37,67.95 88.77,66.02 89.16,64.31 89.56,62.84 89.96,61.55 90.35,60.41 90.75,59.43 91.15,58.57 91.54,57.86 91.94,57.25 92.34,56.74 92.73,56.3 93.13,55.93 93.53,55.62 93.93,55.38 94.32,55.17 94.72,55 95.12,54.86 95.51,54.75 95.91,54.66 96.31,54.59 96.7,54.53 97.1,54.48 97.5,54.45 97.89,54.42 98.29,54.4 98.69,54.38 99.08,54.36 99.48,54.35 99.88,54.35 100.28,54.34 100.67,54.34 101.07,54.33 101.47,54.33 101.86,54.33 102.26,54.33 102.66,54.33 103.05,54.32 103.45,54.32 103.85,54.32 104.24,54.32 104.64,54.32 105.04,54.32 105.43,54.32 105.83,54.32 106.23,54.32 106.63,54.32 107.02,54.32 107.42,54.32 107.82,54.32 108.21,54.32 108.61,54.32 109.01,54.32 109.4,54.32 109.8,54.32 110.2,54.32 110.59,54.32 110.99,54.33 111.39,54.33 111.78,54.33 112.18,54.33 112.58,54.33 112.98,54.34 113.37,54.34 113.77,54.34 114.17,54.35 114.56,54.36 114.96,54.37 115.36,54.38 115.75,54.4 116.15,54.42 116.55,54.44 116.94,54.47 117.34,54.51 117.74,54.55 118.13,54.6 118.53,54.66 118.93,54.74 119.33,54.82 119.72,54.93 120.12,55.05 120.52,55.19 120.91,55.35 121.31,55.54 121.71,55.75 122.1,56 122.5,56.28 122.9,56.59 123.29,56.94 123.69,57.32 124.09,57.76 124.48,58.23 124.88,58.75 125.28,59.31 125.68,59.91 126.07,60.56 126.47,61.26 126.87,61.99 127.26,62.75 127.66,63.55 128.06,64.37 128.45,65.22 128.85,66.07 129.25,66.94 129.64,67.8 130.04,68.66 130.44,69.5 130.83,70.3 131.23,71.07 131.63,71.79 132.03,72.46 132.42,73.06 132.82,73.58 133.22,74.02 133.61,74.38 134.01,74.65 134.41,74.84 134.8,74.91 135.2,74.88 135.6,74.76 135.99,74.55 136.39,74.25 136.79,73.86 137.18,73.38 137.58,72.83 137.98,72.22 138.38,71.56 138.77,70.85 139.17,70.1 139.57,69.33 139.96,68.54 140.36,67.75 140.76,66.96 141.15,66.19 141.55,65.45 141.95,64.74 142.34,64.07 142.74,63.45 143.14,62.87 143.53,62.37 143.93,61.92 144.33,61.54 144.73,61.22 145.12,60.97 145.52,60.79 145.92,60.68 146.31,60.63 146.71,60.65 147.11,60.72 147.5,60.84 147.9,61.03 148.3,61.25 148.69,61.51 149.09,61.8 149.49,62.12 149.88,62.46 150.28,62.82 150.68,63.18 151.08,63.53 151.47,63.88 151.87,64.22 152.27,64.54 152.66,64.83 153.06,65.09 153.46,65.32 153.85,65.52 154.25,65.67 154.65,65.78 155.04,65.85 155.44,65.88 155.84,65.87 156.23,65.83 156.63,65.74 157.03,65.62 157.43,65.48 157.82,65.31 158.22,65.13 158.62,64.92 159.01,64.71 159.41,64.49 159.81,64.28 160.2,64.07 160.6,63.86 161,63.68 161.39,63.5 161.79,63.35 162.19,63.21 162.58,63.09 162.98,63 163.38,62.94 163.78,62.88 164.17,62.85 164.57,62.84 164.97,62.84 165.36,62.85 165.76,62.88 166.16,62.91 166.55,62.94 166.95,62.97 167.35,63.01 167.74,63.04 168.14,63.06 168.54,63.08 168.93,63.08 169.33,63.08 169.73,63.07 170.13,63.04 170.52,63.01 170.92,62.97 171.32,62.92 171.71,62.86 172.11,62.79 172.51,62.72 172.9,62.64 173.3,62.57 173.7,62.49 174.09,62.41 174.49,62.33 174.89,62.26 175.28,62.19 175.68,62.12 176.08,62.05 176.48,61.99 176.87,61.93 177.27,61.87 177.67,61.81 178.06,61.76 178.46,61.71 178.86,61.66 179.25,61.61 179.65,61.56 180.05,61.51 180.44,61.46 180.84,61.4 181.24,61.35 181.63,61.3 182.03,61.24 182.43,61.19 182.83,61.13 183.22,61.07 183.62,61.01 184.02,60.95 184.41,60.89 184.81,60.83 185.21,60.78 185.6,60.72 186,60.66 186.4,60.6 186.79,60.55 187.19,60.49 187.59,60.44 187.98,60.39 188.38,60.34 188.78,60.29 189.18,60.24 189.57,60.19 189.97,60.15 190.37,60.1 190.76,60.06 191.16,60.02 191.56,59.97 191.95,59.93 192.35,59.9 192.75,59.86 193.14,59.82 193.54,59.79 193.94,59.75 194.33,59.72 194.73,59.69 195.13,59.65 195.53,59.62 195.92,59.59 196.32,59.56 196.72,59.54 197.11,59.51 197.51,59.48 197.91,59.45 198.3,59.42 198.7,59.39 199.1,59.36 199.49,59.33 199.89,59.3 200.29,59.27 200.68,59.24 201.08,59.21 201.48,59.17 201.88,59.14 202.27,59.1 202.67,59.07 203.07,59.03 203.46,58.99 203.86,58.95 204.26,58.91 204.65,58.86 205.05,58.82 205.45,58.78 205.84,58.73 206.24,58.69 206.64,58.64 207.03,58.6 207.43,58.55 207.83,58.5 208.23,58.46 208.62,58.41 209.02,58.36 209.42,58.32 209.81,58.27 210.21,58.22 210.61,58.18 211,58.13 211.4,58.09 211.8,58.05 212.19,58 212.59,57.96 212.99,57.92 213.38,57.88 213.78,57.84 214.18,57.8 214.58,57.77 214.97,57.73 215.37,57.7 215.77,57.66 216.16,57.63 216.56,57.6 216.96,57.57 217.35,57.54 217.75,57.51 218.15,57.48 218.54,57.45 218.94,57.43 219.34,57.4 219.73,57.38 220.13,57.36 220.53,57.33 220.93,57.31 221.32,57.29 221.72,57.27 222.12,57.26 222.51,57.24 222.91,57.22 223.31,57.2 223.7,57.19 224.1,57.17 224.5,57.16 224.89,57.14 225.29,57.12 225.69,57.11 226.08,57.09 226.48,57.08 226.88,57.06 227.28,57.04 227.67,57.02 228.07,57 228.47,56.98 228.86,56.96 229.26,56.94 229.66,56.91 230.05,56.89 230.45,56.86 230.85,56.83 231.24,56.8 231.64,56.77 232.04,56.74 232.43,56.71 232.83,56.67 233.23,56.63 233.63,56.59 234.02,56.56 234.42,56.51 234.82,56.47 235.21,56.43 235.61,56.39 236.01,56.34 236.4,56.3 236.8,56.25 237.2,56.2 237.59,56.15 237.99,56.11 238.39,56.06 238.78,56.01 239.18,55.96 239.58,55.91 239.98,55.86 240.37,55.81 240.77,55.76 241.17,55.71 241.56,55.66 241.96,55.61 242.36,55.56 242.75,55.5 243.15,55.45 243.55,55.4 243.94,55.35 244.34,55.3 244.74,55.25 245.13,55.2 245.53,55.15 245.93,55.11 246.33,55.06 246.72,55.01 247.12,54.97 247.52,54.92 247.91,54.88 248.31,54.84 248.71,54.8 249.1,54.76 249.5,54.73 249.9,54.69 250.29,54.66 250.69,54.63 251.09,54.6 251.48,54.57 251.88,54.55 252.28,54.52 252.68,54.5 253.07,54.48 253.47,54.46 253.87,54.44 254.26,54.43 254.66,54.42 255.06,54.4 255.45,54.39 255.85,54.38 256.25,54.37 256.64,54.37 257.04,54.36 257.44,54.35 257.83,54.35 258.23,54.35 258.63,54.34 259.03,54.34 259.42,54.34 259.82,54.33 260.22,54.33 260.61,54.33 261.01,54.33 261.41,54.33 261.8,54.33" stroke-dasharray="none" stroke="rgb(55,126,184)" stroke-width="0.75" opacity="1" stroke-opacity="1" fill="none"/>
          </g>
          <g id="Fig:densplot_01.xyplot.lines.group.6.panel.1.1.1">
            <polyline id="Fig:densplot_01.xyplot.lines.group.6.panel.1.1.1.1" points="61.52,54.72 61.91,54.83 62.3,54.96 62.69,55.12 63.07,55.32 63.46,55.54 63.85,55.82 64.24,56.15 64.63,56.54 65.01,56.99 65.4,57.5 65.79,58.09 66.18,58.77 66.57,59.54 66.95,60.41 67.34,61.37 67.73,62.43 68.12,63.58 68.51,64.84 68.89,66.2 69.28,67.66 69.67,69.19 70.06,70.8 70.45,72.46 70.83,74.18 71.22,75.93 71.61,77.68 72,79.43 72.38,81.15 72.77,82.82 73.16,84.42 73.55,85.92 73.94,87.3 74.32,88.56 74.71,89.69 75.1,90.67 75.49,91.51 75.88,92.15 76.26,92.64 76.65,92.98 77.04,93.2 77.43,93.28 77.82,93.26 78.2,93.13 78.59,92.94 78.98,92.71 79.37,92.47 79.76,92.22 80.14,92 80.53,91.84 80.92,91.75 81.31,91.74 81.7,91.82 82.08,92 82.47,92.29 82.86,92.7 83.25,93.21 83.63,93.82 84.02,94.52 84.41,95.28 84.8,96.11 85.19,96.98 85.57,97.88 85.96,98.79 86.35,99.68 86.74,100.55 87.13,101.37 87.51,102.14 87.9,102.83 88.29,103.44 88.68,103.97 89.07,104.41 89.45,104.76 89.84,105.01 90.23,105.15 90.62,105.2 91.01,105.16 91.39,105.04 91.78,104.85 92.17,104.58 92.56,104.24 92.94,103.84 93.33,103.39 93.72,102.9 94.11,102.37 94.5,101.81 94.88,101.22 95.27,100.61 95.66,99.98 96.05,99.35 96.44,98.7 96.82,98.05 97.21,97.4 97.6,96.76 97.99,96.11 98.38,95.47 98.76,94.84 99.15,94.21 99.54,93.6 99.93,93 100.32,92.41 100.7,91.82 101.09,91.25 101.48,90.7 101.87,90.15 102.25,89.62 102.64,89.1 103.03,88.6 103.42,88.1 103.81,87.62 104.19,87.15 104.58,86.69 104.97,86.24 105.36,85.81 105.75,85.38 106.13,84.96 106.52,84.56 106.91,84.16 107.3,83.78 107.69,83.4 108.07,83.03 108.46,82.68 108.85,82.33 109.24,81.99 109.63,81.66 110.01,81.34 110.4,81.03 110.79,80.72 111.18,80.42 111.57,80.13 111.95,79.85 112.34,79.58 112.73,79.3 113.12,79.04 113.5,78.78 113.89,78.52 114.28,78.27 114.67,78.01 115.06,77.77 115.44,77.52 115.83,77.27 116.22,77.02 116.61,76.78 117,76.53 117.38,76.29 117.77,76.04 118.16,75.8 118.55,75.55 118.94,75.31 119.32,75.07 119.71,74.83 120.1,74.59 120.49,74.36 120.88,74.13 121.26,73.91 121.65,73.69 122.04,73.47 122.43,73.27 122.81,73.06 123.2,72.87 123.59,72.68 123.98,72.5 124.37,72.32 124.75,72.16 125.14,71.99 125.53,71.84 125.92,71.69 126.31,71.55 126.69,71.41 127.08,71.28 127.47,71.15 127.86,71.02 128.25,70.9 128.63,70.78 129.02,70.66 129.41,70.55 129.8,70.44 130.19,70.32 130.57,70.21 130.96,70.1 131.35,69.99 131.74,69.88 132.13,69.78 132.51,69.67 132.9,69.56 133.29,69.45 133.68,69.35 134.06,69.24 134.45,69.14 134.84,69.03 135.23,68.93 135.62,68.82 136,68.72 136.39,68.62 136.78,68.51 137.17,68.41 137.56,68.31 137.94,68.21 138.33,68.11 138.72,68.01 139.11,67.91 139.5,67.81 139.88,67.71 140.27,67.61 140.66,67.51 141.05,67.41 141.44,67.32 141.82,67.22 142.21,67.13 142.6,67.03 142.99,66.94 143.37,66.85 143.76,66.75 144.15,66.67 144.54,66.58 144.93,66.49 145.31,66.41 145.7,66.33 146.09,66.25 146.48,66.17 146.87,66.1 147.25,66.03 147.64,65.96 148.03,65.9 148.42,65.84 148.81,65.79 149.19,65.73 149.58,65.69 149.97,65.64 150.36,65.6 150.75,65.56 151.13,65.53 151.52,65.5 151.91,65.47 152.3,65.45 152.68,65.43 153.07,65.41 153.46,65.39 153.85,65.38 154.24,65.36 154.62,65.35 155.01,65.34 155.4,65.32 155.79,65.31 156.18,65.29 156.56,65.27 156.95,65.25 157.34,65.23 157.73,65.21 158.12,65.18 158.5,65.15 158.89,65.11 159.28,65.07 159.67,65.03 160.06,64.98 160.44,64.93 160.83,64.87 161.22,64.81 161.61,64.75 162,64.68 162.38,64.61 162.77,64.54 163.16,64.47 163.55,64.39 163.93,64.31 164.32,64.23 164.71,64.15 165.1,64.07 165.49,63.99 165.87,63.91 166.26,63.83 166.65,63.74 167.04,63.66 167.43,63.58 167.81,63.5 168.2,63.42 168.59,63.34 168.98,63.26 169.37,63.19 169.75,63.11 170.14,63.04 170.53,62.96 170.92,62.89 171.31,62.82 171.69,62.75 172.08,62.68 172.47,62.62 172.86,62.55 173.24,62.49 173.63,62.43 174.02,62.37 174.41,62.32 174.8,62.26 175.18,62.21 175.57,62.16 175.96,62.12 176.35,62.07 176.74,62.03 177.12,61.99 177.51,61.95 177.9,61.92 178.29,61.88 178.68,61.85 179.06,61.81 179.45,61.78 179.84,61.75 180.23,61.72 180.62,61.69 181,61.65 181.39,61.62 181.78,61.58 182.17,61.55 182.55,61.51 182.94,61.46 183.33,61.42 183.72,61.37 184.11,61.33 184.49,61.27 184.88,61.22 185.27,61.16 185.66,61.1 186.05,61.04 186.43,60.98 186.82,60.92 187.21,60.85 187.6,60.78 187.99,60.71 188.37,60.64 188.76,60.58 189.15,60.51 189.54,60.44 189.93,60.37 190.31,60.3 190.7,60.24 191.09,60.17 191.48,60.11 191.87,60.05 192.25,59.99 192.64,59.94 193.03,59.88 193.42,59.83 193.8,59.78 194.19,59.73 194.58,59.69 194.97,59.65 195.36,59.6 195.74,59.56 196.13,59.53 196.52,59.49 196.91,59.45 197.3,59.42 197.68,59.38 198.07,59.35 198.46,59.31 198.85,59.28 199.24,59.24 199.62,59.21 200.01,59.17 200.4,59.13 200.79,59.1 201.18,59.06 201.56,59.02 201.95,58.98 202.34,58.94 202.73,58.89 203.11,58.85 203.5,58.81 203.89,58.76 204.28,58.71 204.67,58.67 205.05,58.62 205.44,58.57 205.83,58.52 206.22,58.47 206.61,58.42 206.99,58.37 207.38,58.32 207.77,58.26 208.16,58.21 208.55,58.16 208.93,58.11 209.32,58.06 209.71,58.01 210.1,57.96 210.49,57.91 210.87,57.86 211.26,57.81 211.65,57.77 212.04,57.72 212.42,57.68 212.81,57.64 213.2,57.6 213.59,57.56 213.98,57.52 214.36,57.49 214.75,57.46 215.14,57.42 215.53,57.39 215.92,57.36 216.3,57.34 216.69,57.31 217.08,57.28 217.47,57.26 217.86,57.23 218.24,57.21 218.63,57.18 219.02,57.15 219.41,57.13 219.8,57.1 220.18,57.08 220.57,57.05 220.96,57.03 221.35,57 221.74,56.97 222.12,56.94 222.51,56.92 222.9,56.89 223.29,56.86 223.67,56.83 224.06,56.81 224.45,56.78 224.84,56.75 225.23,56.73 225.61,56.7 226,56.68 226.39,56.66 226.78,56.64 227.17,56.62 227.55,56.6 227.94,56.58 228.33,56.57 228.72,56.56 229.11,56.54 229.49,56.53 229.88,56.52 230.27,56.51 230.66,56.51 231.05,56.5 231.43,56.49 231.82,56.48 232.21,56.47 232.6,56.46 232.98,56.45 233.37,56.44 233.76,56.43 234.15,56.41 234.54,56.4 234.92,56.38 235.31,56.36 235.7,56.34 236.09,56.31 236.48,56.28 236.86,56.25 237.25,56.22 237.64,56.19 238.03,56.15 238.42,56.11 238.8,56.07 239.19,56.03 239.58,55.98 239.97,55.93 240.36,55.89 240.74,55.83 241.13,55.78 241.52,55.73 241.91,55.67 242.3,55.61 242.68,55.56 243.07,55.5 243.46,55.44 243.85,55.38 244.23,55.32 244.62,55.26 245.01,55.2 245.4,55.14 245.79,55.09 246.17,55.03 246.56,54.98 246.95,54.92 247.34,54.87 247.73,54.83 248.11,54.78 248.5,54.74 248.89,54.69 249.28,54.66 249.67,54.62 250.05,54.59 250.44,54.55 250.83,54.53 251.22,54.5 251.61,54.48 251.99,54.46 252.38,54.44 252.77,54.42 253.16,54.41 253.54,54.39 253.93,54.38 254.32,54.37 254.71,54.36 255.1,54.36 255.48,54.35 255.87,54.35 256.26,54.34 256.65,54.34 257.04,54.33 257.42,54.33 257.81,54.33 258.2,54.33 258.59,54.33 258.98,54.33 259.36,54.33 259.75,54.32" stroke-dasharray="none" stroke="rgb(55,126,184)" stroke-width="0.75" opacity="1" stroke-opacity="1" fill="none"/>
          </g>
        </g>
        <g id="Fig:densplot_01.panel.1.1.off.vp.2">
          <g id="Fig:densplot_01.border.panel.1.1.1">
            <rect id="Fig:densplot_01.border.panel.1.1.1.1" x="44.8" y="42.19" width="231.2" height="197.62" transform="" stroke="rgb(0,0,0)" stroke-dasharray="none" stroke-width="0.75" opacity="1" fill="none" stroke-opacity="1" fill-opacity="0"/>
          </g>
        </g>
        <g id="Fig:densplot_01..1"/>
      </g>
    </g>
  </g>
</svg>